<?xml version="1.0" encoding="UTF-8"?>
<svg version="1.1" xmlns="http://www.w3.org/2000/svg" width="606" height="155">
<path d="M0 0 C3.81691688 3.08756971 6.53798147 6.21700364 8.96484375 10.48828125 C8.96484375 11.14828125 8.96484375 11.80828125 8.96484375 12.48828125 C-2.45548487 13.57020712 -2.45548487 13.57020712 -6.10546875 11.0703125 C-7.19693824 9.83384102 -8.26963263 8.58057551 -9.32421875 7.3125 C-14.23519279 2.07637014 -21.17545304 1.21917245 -28.03515625 0.98828125 C-36.40877233 1.24340775 -43.98745533 3.44058033 -50.03515625 9.48828125 C-54.65021799 15.55379097 -56.31517858 20.76718724 -56.16015625 28.36328125 C-56.14210937 29.51570313 -56.1240625 30.668125 -56.10546875 31.85546875 C-56.08226562 32.72429687 -56.0590625 33.593125 -56.03515625 34.48828125 C-56.65519531 34.34390625 -57.27523437 34.19953125 -57.9140625 34.05078125 C-68.4125666 31.85022144 -80.2765829 30.2604741 -90.03515625 35.48828125 C-95.51759121 39.25815032 -99.07368562 43.09406002 -100.53515625 49.7734375 C-101.46444264 56.03644057 -100.585262 60.73624901 -98.03515625 66.48828125 C-97.64328125 67.39578125 -97.25140625 68.30328125 -96.84765625 69.23828125 C-92.53876915 74.58724455 -86.60334059 76.98094092 -80.03515625 78.48828125 C-77.21443921 78.70178968 -74.42417543 78.68051775 -71.59765625 78.61328125 C-70.86611328 78.60425781 -70.13457031 78.59523438 -69.38085938 78.5859375 C-67.59881327 78.56264278 -65.81693866 78.52678315 -64.03515625 78.48828125 C-63.37515625 76.17828125 -62.71515625 73.86828125 -62.03515625 71.48828125 C-49.49515625 71.48828125 -36.95515625 71.48828125 -24.03515625 71.48828125 C-27.10690372 80.70352365 -31.56822129 84.20053854 -40.03515625 88.48828125 C-43.9158202 89.81479392 -47.89668785 89.65011796 -51.94921875 89.65625 C-53.10374039 89.6612426 -53.10374039 89.6612426 -54.28158569 89.66633606 C-55.91053675 89.67139223 -57.53949813 89.67374479 -59.16845703 89.67358398 C-61.63071373 89.67575529 -64.0925109 89.69388244 -66.5546875 89.71289062 C-79.96709281 89.76304749 -92.31952061 89.19340841 -102.921875 79.8203125 C-110.56931235 71.40235249 -112.43273554 62.48945611 -112.2421875 51.44140625 C-111.78433734 42.69905977 -108.04606408 36.77876619 -102.03515625 30.48828125 C-91.44954955 21.602553 -81.25045369 21.05047385 -68.03515625 21.48828125 C-67.84759766 20.13476562 -67.84759766 20.13476562 -67.65625 18.75390625 C-65.86660546 9.34420286 -59.1863229 2.45976639 -52.03515625 -3.51171875 C-35.10761742 -14.74425614 -15.67194085 -11.64115376 0 0 Z " fill="#707637" transform="translate(143.03515625,34.51171875)"/>
<path d="M0 0 C1.04531387 -0.01268417 2.09062775 -0.02536835 3.1676178 -0.03843689 C4.29364914 -0.03550125 5.41968048 -0.03256561 6.57983398 -0.02954102 C8.33009132 -0.03740379 8.33009132 -0.03740379 10.1157074 -0.04542542 C12.58787237 -0.05185086 15.06006789 -0.05050192 17.53222656 -0.04199219 C21.28759456 -0.03353361 25.04141514 -0.06215564 28.79663086 -0.09399414 C31.20353145 -0.0956077 33.61043471 -0.09502567 36.01733398 -0.09204102 C37.68512657 -0.10889198 37.68512657 -0.10889198 39.38661194 -0.12608337 C50.20859988 -0.03097139 59.81040534 2.81728795 67.76342773 10.40405273 C73.67820961 17.0044116 77.72439912 24.37803472 77.78295898 33.41967773 C77.05967149 44.71933902 74.16358746 52.60025323 65.76342773 60.40405273 C58.2299968 66.14519739 51.32212564 67.70787967 41.98999023 67.59936523 C41.06624603 67.59653534 40.14250183 67.59370544 39.19076538 67.59078979 C36.25651797 67.57964453 33.32258203 67.55455039 30.38842773 67.52905273 C28.39233841 67.51901563 26.39624427 67.50989105 24.40014648 67.50170898 C19.52112124 67.4797237 14.6423272 67.4452329 9.76342773 67.40405273 C11.91794541 65.2449704 14.07944395 63.09593693 16.26342773 60.96655273 C18.79567689 58.51449656 18.79567689 58.51449656 20.57592773 55.77905273 C23.03820716 53.10572079 25.06893817 52.57400327 28.46264648 51.49389648 C32.530205 49.56715824 35.53555187 46.35348505 38.75952148 43.26733398 C40.76342773 41.40405273 40.76342773 41.40405273 41.76342773 41.40405273 C42.25079249 48.1053181 40.84051577 52.46966866 37.76342773 58.40405273 C47.3683489 57.40941639 55.42419366 56.07707405 62.20092773 48.77905273 C65.41954976 41.82682916 66.61921937 34.84930024 64.52124023 27.40014648 C62.04763795 20.88462706 57.52367258 16.49307765 51.51342773 13.15405273 C43.57388676 10.98872338 35.02205179 11.2187175 26.84936523 11.08764648 C25.75371246 11.06686539 24.65805969 11.04608429 23.52920532 11.02467346 C20.06567003 10.9598433 16.60206585 10.90060572 13.13842773 10.84155273 C10.77513966 10.79830408 8.41185829 10.75468788 6.04858398 10.71069336 C0.28693581 10.60423121 -5.47477927 10.50234751 -11.23657227 10.40405273 C-9.76909618 3.92270001 -9.76909618 3.92270001 -7.48573303 1.69883728 C-4.78289077 0.14287986 -3.10715621 0.01830257 0 0 Z " fill="#6F7537" transform="translate(108.236572265625,55.595947265625)"/>
<path d="M0 0 C0 2.31 0 4.62 0 7 C-6.63 6.09 -6.63 6.09 -9.3125 5.4375 C-14.90304306 4.52741159 -22.12260776 3.6959601 -27 7 C-28.16210219 9.39351495 -28.16210219 9.39351495 -28 12 C-25.8466052 14.77656371 -23.77637584 15.59962899 -20.4375 16.5 C-19.55578125 16.74878906 -18.6740625 16.99757813 -17.765625 17.25390625 C-15.943909 17.74535788 -14.12101034 18.23244958 -12.296875 18.71484375 C-6.77889586 20.24302659 -2.02060365 21.62270532 1.09375 26.828125 C2.76599665 30.8357506 2.73117249 34.75658823 2 39 C-0.10905284 43.17158245 -3.28153952 45.97373391 -7.5 47.9375 C-17.49192764 51.01340889 -29.68892926 49.65553537 -39 45 C-39 42.36 -39 39.72 -39 37 C-37.58318366 37.31182069 -36.16655349 37.62448737 -34.75 37.9375 C-33.96109375 38.11152344 -33.1721875 38.28554687 -32.359375 38.46484375 C-30.93310033 38.78835307 -29.51272751 39.14296011 -28.109375 39.5546875 C-25.2207954 40.16449875 -22.44988015 40.17058555 -19.5 40.1875 C-18.3759375 40.20167969 -17.251875 40.21585938 -16.09375 40.23046875 C-13.1100607 40.00819897 -11.46117189 39.65050153 -9 38 C-7.8949732 35.63208543 -7.84948857 34.48655897 -8.62109375 31.9921875 C-10.60984981 29.11891387 -12.5994837 28.88907925 -15.9375 28 C-17.10023438 27.66871094 -18.26296875 27.33742188 -19.4609375 26.99609375 C-20.62882812 26.66738281 -21.79671875 26.33867188 -23 26 C-32.77803738 23.01830218 -32.77803738 23.01830218 -36.625 19.8125 C-38.5362215 15.90318329 -39.1903975 12.34740952 -39 8 C-37.30340722 3.60881868 -34.05734545 0.35892177 -30 -2 C-20.09211273 -5.58520698 -9.45164836 -4.18053677 0 0 Z " fill="#6A6E33" transform="translate(243,63)"/>
<path d="M0 0 C0 2.31 0 4.62 0 7 C-2 8 -2 8 -4.03125 7.44140625 C-4.8459375 7.15136719 -5.660625 6.86132812 -6.5 6.5625 C-12.82145299 4.56817764 -18.58769375 4.23397207 -25.0625 5.6875 C-27.19974084 6.88717506 -27.19974084 6.88717506 -28.0625 9.375 C-28.24630049 12.0577369 -28.24630049 12.0577369 -26.55078125 14.0078125 C-23.01303886 16.77082723 -19.44472339 17.48811003 -15.125 18.5 C-8.13339399 20.15380566 -2.21001503 21.68497746 2 28 C2.74397483 32.49246339 2.95018736 36.99123888 0.97265625 41.171875 C-2.71967951 45.95861499 -7.11707533 48.02390936 -13 49 C-21.39975094 49.75587112 -29.07001912 48.9207754 -37 46 C-38 45 -38 45 -38.09765625 43.15234375 C-38.06510417 41.1015625 -38.03255208 39.05078125 -38 37 C-35.29341258 37.47763307 -32.84561432 38.05778436 -30.265625 39.0234375 C-26.65247495 40.10392496 -23.63975465 40.26626244 -19.875 40.25 C-18.67617188 40.25515625 -17.47734375 40.2603125 -16.2421875 40.265625 C-13.21629313 40.0177204 -11.53674239 39.59019672 -9 38 C-9 35.69 -9 33.38 -9 31 C-14.59878703 27.95004349 -20.17262841 26.60886467 -26.34375 25.16015625 C-31.61393743 23.48788524 -35.04388682 21.52380538 -38 16.8125 C-39.26647286 11.98407223 -39.03753536 8.56305187 -37 4 C-33.30591862 -0.56783117 -28.45432965 -2.46004748 -22.875 -3.6875 C-14.6517735 -4.35066343 -7.55214816 -3.27734731 0 0 Z " fill="#6B7135" transform="translate(378,63)"/>
<path d="M0 0 C3.63 0 7.26 0 11 0 C11.42297363 0.96188232 11.84594727 1.92376465 12.28173828 2.91479492 C13.87967651 6.54780318 15.47917528 10.18012273 17.07910156 13.81225586 C17.76603842 15.37229524 18.45257453 16.93251115 19.13867188 18.49291992 C20.1356149 20.7600908 21.13391957 23.02665636 22.1328125 25.29296875 C22.62216278 26.4048909 22.62216278 26.4048909 23.12139893 27.53927612 C25.63846166 33.23721381 28.26633345 38.8746631 30.96435547 44.48950195 C32 47 32 47 32 50 C29.03 50 26.06 50 23 50 C22.16180842 48.37750059 21.3295884 46.75191503 20.5 45.125 C20.0359375 44.22007813 19.571875 43.31515625 19.09375 42.3828125 C18 40 18 40 18 38 C9.42 38 0.84 38 -8 38 C-8.495 40.475 -8.495 40.475 -9 43 C-9.89305874 45.39228689 -10.94896026 47.66943362 -12 50 C-15.3 50 -18.6 50 -22 50 C-19.68735512 42.47598413 -16.59551829 35.49279263 -13.25 28.375 C-12.71793945 27.23305176 -12.18587891 26.09110352 -11.63769531 24.91455078 C-10.09603012 21.60770237 -8.54835906 18.30371799 -7 15 C-6.21814774 13.32319735 -5.43682185 11.64614908 -4.65625 9.96875 C-3.1085795 6.64375955 -1.55634812 3.32094 0 0 Z M4 10 C2.66087415 13.12254943 1.32969342 16.24842358 0 19.375 C-0.57234375 20.70917969 -0.57234375 20.70917969 -1.15625 22.0703125 C-1.5171875 22.92109375 -1.878125 23.771875 -2.25 24.6484375 C-2.75273437 25.82672119 -2.75273437 25.82672119 -3.265625 27.02880859 C-4.11637101 28.96176935 -4.11637101 28.96176935 -4 31 C2.27 31 8.54 31 15 31 C13.32597012 25.94500294 13.32597012 25.94500294 11.2734375 21.1328125 C10.9640625 20.47539063 10.6546875 19.81796875 10.3359375 19.140625 C10.01882813 18.47546875 9.70171875 17.8103125 9.375 17.125 C9.05015625 16.43664062 8.7253125 15.74828125 8.390625 15.0390625 C7.59676528 13.35794781 6.79880442 11.67877079 6 10 C5.34 10 4.68 10 4 10 Z " fill="#757A39" transform="translate(408,61)"/>
<path d="M0 0 C5.40337704 2.4646983 8.54320679 6.35801697 10.75 11.875 C11.53733389 18.56733802 11.2190164 24.01083402 8 30 C5.04509223 33.57699362 2.52087484 35.84349713 -2 37 C-7.7954845 37.38003177 -12.43055191 36.59127088 -18 35 C-18 39.62 -18 44.24 -18 49 C-20.97 49 -23.94 49 -27 49 C-27 33.16 -27 17.32 -27 1 C-23 1 -19 1 -15 1 C-10.58075075 -1.20962462 -4.81031783 -0.41599582 0 0 Z M-17 9 C-19.47385671 11.47385671 -19.28571102 12.97504228 -19.32226562 16.36132812 C-19.31904297 17.04646484 -19.31582031 17.73160156 -19.3125 18.4375 C-19.32861328 19.11876953 -19.34472656 19.80003906 -19.36132812 20.50195312 C-19.36520138 24.44690572 -19.36520138 24.44690572 -17.66796875 27.91015625 C-13.54716578 30.60267154 -8.74457853 30.7574678 -4 30 C-0.71824682 27.47031526 0.69243777 25.92268669 2 22 C2.38971703 17.24545226 2.4608337 14.92166739 0.3125 10.625 C-2.10142885 7.88486455 -3.5021949 6.8968731 -7 6 C-10.90454958 6 -13.49374314 7.34249676 -17 9 Z " fill="#5E632D" transform="translate(519,75)"/>
<path d="M0 0 C4.94586526 2.29629459 7.30760518 5.31323865 10 10 C11.98668578 15.96005735 11.98871422 22.66780719 9.375 28.4375 C6.71417351 33.0584371 3.00371727 35.33209424 -2 37 C-8.21481787 37.42134358 -12.28374518 36.4498235 -18 34 C-17.98839844 34.99902344 -17.97679687 35.99804688 -17.96484375 37.02734375 C-17.95582031 38.31769531 -17.94679688 39.60804687 -17.9375 40.9375 C-17.92589844 42.22527344 -17.91429687 43.51304688 -17.90234375 44.83984375 C-18 48 -18 48 -19 49 C-21.64 49 -24.28 49 -27 49 C-27 33.16 -27 17.32 -27 1 C-24.03 1 -21.06 1 -18 1 C-17.67 1.66 -17.34 2.32 -17 3 C-15.94619141 2.27103516 -15.94619141 2.27103516 -14.87109375 1.52734375 C-10.08211134 -1.02026458 -5.29140637 -0.63898937 0 0 Z M-17 9 C-19.35490728 12.53236092 -19.32743705 14.24720368 -19.375 18.4375 C-19.40335937 19.57058594 -19.43171875 20.70367187 -19.4609375 21.87109375 C-18.9104089 25.60815653 -17.92377342 26.70119674 -15 29 C-11.53984865 30.73007568 -7.78327445 30.4835273 -4 30 C-0.50109996 27.88608123 0.70578686 26.88263941 2 23 C2.52922596 17.56525651 2.50423369 13.44768123 -1 9 C-3.46903297 6.53096703 -5.49189332 6.3178856 -8.8984375 5.96484375 C-12.17984432 6.01973717 -14.31078498 7.20718999 -17 9 Z " fill="#646930" transform="translate(473,75)"/>
<path d="M0 0 C0.68964844 -0.01160156 1.37929688 -0.02320312 2.08984375 -0.03515625 C6.53402392 -0.00966382 9.32853164 0.69224718 12.875 3.375 C16.5137958 7.53362378 16.99909553 10.93541574 16.97265625 16.35546875 C16.96943359 17.51884766 16.96621094 18.68222656 16.96289062 19.88085938 C16.95032227 21.70327148 16.95032227 21.70327148 16.9375 23.5625 C16.93298828 24.78904297 16.92847656 26.01558594 16.92382812 27.27929688 C16.91203065 30.31124668 16.89556921 33.34309906 16.875 36.375 C10.8203125 36.5703125 10.8203125 36.5703125 8.875 36.375 C8.215 35.715 7.555 35.055 6.875 34.375 C5.699375 34.87 4.52375 35.365 3.3125 35.875 C-2.17100542 37.90235236 -6.27342475 37.99219175 -11.875 36.125 C-16.71966667 33.51633333 -16.71966667 33.51633333 -18.125 30.375 C-18.75711842 26.0923977 -18.94057146 22.64729148 -16.5625 18.9375 C-11.12437912 15.45152508 -5.50547895 15.13817736 0.8125 15.25 C1.49634766 15.25902344 2.18019531 15.26804687 2.88476562 15.27734375 C4.54833287 15.30061042 6.21171631 15.33646833 7.875 15.375 C7.545 13.065 7.215 10.755 6.875 8.375 C-0.48275771 6.59130116 -6.92093842 7.54539706 -14.125 9.375 C-14.455 7.395 -14.785 5.415 -15.125 3.375 C-9.86988998 0.78174727 -5.8316107 -0.09921455 0 0 Z M-9.125 23.375 C-9.3750773 25.83309998 -9.3750773 25.83309998 -9.125 28.375 C-6.46251917 31.03748083 -4.85716655 31.09332705 -1.125 31.375 C3.88959682 30.34565096 3.88959682 30.34565096 7.875 27.375 C8.12505386 24.33317107 8.12505386 24.33317107 7.875 21.375 C6.3233498 19.8233498 4.83770239 20.2055084 2.6875 20.1875 C-1.3522162 20.22615757 -6.09586646 20.34586646 -9.125 23.375 Z " fill="#797F3D" transform="translate(270.125,74.625)"/>
<path d="M0 0 C0.68126953 -0.01160156 1.36253906 -0.02320312 2.06445312 -0.03515625 C6.75340656 -0.00813058 10.03002034 0.77757521 13.9375 3.375 C16.88435078 7.3016634 17.29699359 10.13196828 17.23046875 14.98828125 C17.2159668 16.8590332 17.2159668 16.8590332 17.20117188 18.76757812 C17.17603516 20.06115234 17.15089844 21.35472656 17.125 22.6875 C17.10469727 24.65686523 17.10469727 24.65686523 17.08398438 26.66601562 C17.04867443 29.90276077 16.9993528 33.13867105 16.9375 36.375 C14.2975 36.375 11.6575 36.375 8.9375 36.375 C8.6075 35.385 8.2775 34.395 7.9375 33.375 C7.195 33.849375 6.4525 34.32375 5.6875 34.8125 C1.05768332 37.44307766 -2.7247103 37.74312343 -8.0625 37.375 C-12.68580253 35.65259317 -15.53718782 33.64860523 -18.0625 29.375 C-18.64573624 25.29234632 -18.50861341 23.17800414 -16.5 19.5625 C-11.41740334 15.0011953 -5.10098592 15.09595093 1.375 15.25 C2.47231445 15.26353516 2.47231445 15.26353516 3.59179688 15.27734375 C5.37384298 15.30063847 7.15571759 15.3364981 8.9375 15.375 C7.45017693 10.69057044 7.45017693 10.69057044 4.1875 7.4375 C3.445 7.416875 2.7025 7.39625 1.9375 7.375 C0.3596875 7.313125 0.3596875 7.313125 -1.25 7.25 C-5.56156301 7.39136272 -9.78576893 7.83192304 -14.0625 8.375 C-14.3925 6.725 -14.7225 5.075 -15.0625 3.375 C-9.93459316 0.84781775 -5.75503155 -0.09856381 0 0 Z M-8.0625 22.375 C-8.7503236 24.72867713 -8.7503236 24.72867713 -9.0625 27.375 C-8.0725 28.86 -8.0725 28.86 -7.0625 30.375 C-3.35398791 31.09162069 0.21377413 30.95448472 3.9375 30.375 C7.21560542 28.35139007 7.21560542 28.35139007 8.9375 25.375 C8.9375 24.055 8.9375 22.735 8.9375 21.375 C3.74146208 18.77698104 -2.93967638 20.27332877 -8.0625 22.375 Z " fill="#717739" transform="translate(313.0625,74.625)"/>
<path d="M0 0 C1.53695778 -0.01902626 1.53695778 -0.01902626 3.10496521 -0.03843689 C4.75662437 -0.03403343 4.75662437 -0.03403343 6.44165039 -0.02954102 C7.57832657 -0.03478287 8.71500275 -0.04002472 9.88612366 -0.04542542 C12.28930851 -0.05184716 14.69252478 -0.05050669 17.09570312 -0.04199219 C20.77213559 -0.03348699 24.44701225 -0.06223629 28.12329102 -0.09399414 C30.45857701 -0.09560635 32.79386575 -0.09502825 35.12915039 -0.09204102 C36.22823227 -0.10327499 37.32731415 -0.11450897 38.45970154 -0.12608337 C42.87775667 -0.08575847 46.05855831 0.02836659 50.08447266 1.93505859 C52.67212016 5.55004398 52.21671502 8.02515217 51.85180664 12.40405273 C44.21104446 12.47354334 36.57031502 12.52685913 28.92930889 12.55948925 C25.38130728 12.57514967 21.83352177 12.59639424 18.28564453 12.63037109 C14.20741697 12.66918281 10.12941663 12.68375876 6.05102539 12.69702148 C4.77595627 12.71250534 3.50088715 12.7279892 2.18717957 12.74394226 C1.00618179 12.74416885 -0.17481598 12.74439545 -1.39160156 12.74462891 C-2.9538018 12.75462166 -2.9538018 12.75462166 -4.54756165 12.76481628 C-7.14819336 12.40405273 -7.14819336 12.40405273 -9.0118866 11.07026672 C-10.14819336 9.40405273 -10.14819336 9.40405273 -10.08569336 6.40405273 C-8.43483443 1.12130417 -5.27044691 0.03164681 0 0 Z " fill="#666C2F" transform="translate(86.148193359375,79.595947265625)"/>
<path d="M0 0 C1.30710937 -0.01417969 2.61421875 -0.02835937 3.9609375 -0.04296875 C7.36298963 0.1710196 9.59183747 0.70605189 12.625 2.1875 C12.625 4.4975 12.625 6.8075 12.625 9.1875 C12.05652344 9.043125 11.48804688 8.89875 10.90234375 8.75 C2.51231609 6.66174817 2.51231609 6.66174817 -5.8125 8.1875 C-6.328125 8.5175 -6.84375 8.8475 -7.375 9.1875 C-7.045 10.5075 -6.715 11.8275 -6.375 13.1875 C-5.27800781 13.42984375 -4.18101562 13.6721875 -3.05078125 13.921875 C-1.59619109 14.2597153 -0.14177281 14.59829625 1.3125 14.9375 C2.03373047 15.09476563 2.75496094 15.25203125 3.49804688 15.4140625 C8.07079972 16.4998303 11.21251475 17.76847742 14.625 21.1875 C15.66214339 24.43721594 15.7752149 26.48649711 15.0625 29.8125 C12.87954927 33.41911425 9.77173288 35.50628205 5.75390625 36.78125 C-2.04002994 38.26853324 -9.11782493 37.19788373 -16.375 34.1875 C-16.375 32.2075 -16.375 30.2275 -16.375 28.1875 C-15.70855469 28.34347656 -15.04210937 28.49945313 -14.35546875 28.66015625 C-7.41305205 30.12631698 -1.38788729 30.19127884 5.625 29.1875 C5.16673864 26.68269167 5.16673864 26.68269167 3.625 24.1875 C1.09057073 23.24871141 -1.06837073 22.6318477 -3.6875 22.125 C-8.7838903 21.09188111 -12.60649011 19.97722101 -16.375 16.1875 C-17.50694238 12.29644806 -17.80438174 10.1818577 -16.1875 6.4375 C-11.54013405 0.66835606 -7.20798353 0.03540267 0 0 Z " fill="#5D612E" transform="translate(553.375,74.8125)"/>
</svg>
